# xmcd
# Track frame offsets:
# 150
# 10990
# 25367
# 38659
# 50735
# 64132
# 78194
# 92736
# 108982
# 122270
# 135882
# 153515
# 171265
# 183910
# 198126
#
# Disc length: 2857 seconds
# Revision: 0
# Processed by: cddbd v1.5.2PL0 Copyright (c) Steve Scherf et al.
# Submitted via: VisiTrax 2.9.10.228 - For more info visit www.synapsa.com
#
DISCID=b50b270f
DTITLE=Tillis, Mel - CB90089
DYEAR=1900
DGENRE=Karaoke
TTITLE0=I Ain't Never
TTITLE1=Heart Over Mind
TTITLE2=Sawmill
TTITLE3=I Believe In You
TTITLE4=Midnight, Me And The Blues
TTITLE5=Stomp Them Grapes
TTITLE6=Memory Maker
TTITLE7=Good Woman Blues
TTITLE8=Heart Healer
TTITLE9=I Got The Hoss
TTITLE10=Send Me Down To Tucson
TTITLE11=Your Body Is An Outlaw
TTITLE12=Southern Rains
TTITLE13=New Patches
TTITLE14=Coca Cola Cowboy
EXTD=
EXTT0=
EXTT1=
EXTT2=
EXTT3=
EXTT4=
EXTT5=
EXTT6=
EXTT7=
EXTT8=
EXTT9=
EXTT10=
EXTT11=
EXTT12=
EXTT13=
EXTT14=
PLAYORDER=
